<svg width="96" height="96" viewBox="0 0 96 96" fill="none" xmlns="http://www.w3.org/2000/svg">
<rect width="96" height="96" rx="16" fill="white"/>
<path d="M27.5476 69.2923C26.5159 69.2923 26 68.7487 26 67.6615C26 66.5538 26.0202 65.4462 26.0607 64.3385C26.1214 63.2103 26.1618 62.0923 26.1821 60.9846C26.2225 58.7487 26.2529 56.5231 26.2731 54.3077C26.3136 52.0923 26.3338 49.8667 26.3338 47.6308C26.3338 41.4359 26.2428 35.2513 26.0607 29.0769V28.5231C26.0607 28.2974 26.091 27.8667 26.1517 27.2308C26.2124 26.5744 26.4349 26.2462 26.8193 26.2462C27.1632 26.2462 27.5375 26.5026 27.9421 27.0154C28.3669 27.5077 28.6703 27.8667 28.8524 28.0923C29.6818 29.2 30.491 30.3282 31.28 31.4769C32.069 32.6051 32.8579 33.7333 33.6469 34.8615C35.2451 37.1385 36.823 39.4154 38.3807 41.6923C39.9586 43.9692 41.5366 46.2564 43.1145 48.5538C43.8023 49.559 44.48 50.5641 45.1476 51.5692C45.8354 52.5744 46.5232 53.5692 47.211 54.5538C47.3526 54.7385 47.4943 54.8308 47.6359 54.8308C47.7572 54.8308 47.8887 54.7385 48.0303 54.5538C49.2239 52.9128 50.3871 51.2615 51.52 49.6C52.6731 47.9385 53.8262 46.2872 54.9793 44.6462C57.4271 41.159 59.8851 37.6923 62.3531 34.2462C64.8212 30.8 67.3195 27.3846 69.8483 24H70C69.8584 27.8974 69.7471 31.8051 69.6662 35.7231C69.6055 39.641 69.5752 43.559 69.5752 47.4769C69.5752 49.7128 69.5853 51.9487 69.6055 54.1846C69.646 56.4205 69.6864 58.6667 69.7269 60.9231C69.7471 62.0513 69.7775 63.1795 69.8179 64.3077C69.8786 65.4154 69.909 66.5333 69.909 67.6615C69.909 68.7487 69.3931 69.2923 68.3614 69.2923H59.9255C59.3591 69.2923 58.9747 69.1692 58.7724 68.9231C58.5701 68.6564 58.4386 68.2667 58.3779 67.7538C58.297 67.2 58.2667 66.6154 58.2869 66C58.3274 65.3846 58.3375 64.7897 58.3172 64.2154C58.297 62.8205 58.2869 61.4154 58.2869 60C58.3071 58.5641 58.297 57.1487 58.2566 55.7538C58.2566 55.7128 58.2464 55.5385 58.2262 55.2308C58.206 54.9026 58.1251 54.7385 57.9834 54.7385C57.8621 54.7385 57.7306 54.8513 57.589 55.0769C57.4474 55.3026 57.3563 55.4462 57.3159 55.5077C55.7177 58.2359 54.1499 60.9846 52.6124 63.7538C51.0749 66.5026 49.5172 69.2513 47.9393 72H47.7876C46.1692 69.4974 44.571 66.9744 42.9931 64.4308C41.4152 61.8872 39.7968 59.3744 38.1379 56.8923C38.0975 56.8103 38.0064 56.6872 37.8648 56.5231C37.7434 56.3385 37.6221 56.2462 37.5007 56.2462C37.3591 56.2462 37.2782 56.3897 37.2579 56.6769C37.2377 56.9641 37.2276 57.1282 37.2276 57.1692C37.2276 58.3385 37.2175 59.5179 37.1972 60.7077C37.177 61.8769 37.1568 63.0462 37.1366 64.2154C37.1366 64.7897 37.1467 65.3846 37.1669 66C37.2074 66.6154 37.1871 67.2 37.1062 67.7538C37.0455 68.2667 36.914 68.6564 36.7117 68.9231C36.5094 69.1692 36.1251 69.2923 35.5586 69.2923H27.5476Z" fill="#1847C1"/>
</svg>
